#!OML:ASF I:\Actors\actors\Patient Classification 2\Patient 1\Session 1\actor1.ASF
:FULLY-SPECIFIED
:DEGREES
164
root -0.903518 18.2699 7.22675 -4.03897 -4.33833 -5.48139
lowerback -0.866845 0.00751603 1.57223
upperback -7.79442 0.0918116 0.582715
thorax -7.64835 -0.0394826 -0.273137
lowerneck -9.40121 -10.7674 -9.45908
upperneck 30.6814 -15.7477 5.46289
head 13.0333 -7.56287 1.34716
rclavicle -1.53064e-014 -2.38542e-015
rhumerus -34.597 9.707 -95.9481
rradius 111.085
rwrist 27.2506
rhand 15.3984 -50.5481
rfingers 7.12502
rthumb 40.2265 -75.7054
lclavicle -1.53064e-014 -2.38542e-015
lhumerus -29.6917 -13.1152 100.783
lradius 117.623
lwrist -25.4393
lhand 40.6931 2.1594
lfingers 7.12502
lthumb 62.9672 12.3946
rfemur 17.8607 3.21159 20.1652
rtibia -5.24792e-014
rfoot -17.8803 -10.1018
rtoes -20.3955
lfemur 3.26706 -1.78161 -8.26364
ltibia 28.5659
lfoot -26.6565 7.80539
ltoes -58.484
165
root -0.900819 18.2706 7.22585 -3.96962 -4.46721 -5.48392
lowerback -0.871433 -0.0694641 1.55526
upperback -7.76477 -0.012303 0.591953
thorax -7.6151 -0.0892989 -0.248086
lowerneck -8.60375 -11.2456 -10.1498
upperneck 29.9866 -16.4881 5.96456
head 12.7754 -7.94704 1.56736
rclavicle 1.0138e-014 1.31198e-014
rhumerus -34.6156 9.91007 -96.0433
rradius 111.062
rwrist 26.8306
rhand 16.0815 -50.8133
rfingers 7.12502
rthumb 40.8687 -75.7713
lclavicle 1.0138e-014 1.31198e-014
lhumerus -29.7613 -13.0871 100.789
lradius 117.64
lwrist -25.6335
lhand 40.9317 2.14088
lfingers 7.12502
lthumb 63.1629 12.1074
rfemur 17.7595 3.34232 20.1752
rtibia 1.74931e-014
rfoot -17.8502 -10.117
rtoes -20.2385
lfemur 3.22206 -1.68896 -8.26398
ltibia 28.5654
lfoot -26.6759 7.84362
ltoes -58.4872
166
root -0.899632 18.2719 7.22565 -3.88658 -4.62049 -5.48054
lowerback -0.934078 -0.131552 1.53054
upperback -7.73568 -0.0995594 0.575845
thorax -7.54831 -0.131123 -0.24647
lowerneck -8.11501 -11.6252 -10.6182
upperneck 29.5705 -17.0889 6.32757
head 12.6555 -8.24715 1.70212
rclavicle -2.68359e-014 1.98785e-014
rhumerus -34.6678 10.038 -96.1265
rradius 111.042
rwrist 26.5389
rhand 16.2174 -51.0031
rfingers 7.12502
rthumb 40.9963 -75.9207
lclavicle -2.68359e-014 1.98785e-014
lhumerus -29.8166 -13.126 100.748
lradius 117.58
lwrist -25.7481
lhand 41.17 2.10473
lfingers 7.12502
lthumb 63.3577 11.7988
rfemur 17.649 3.49712 20.1828
rtibia -4.92986e-014
rfoot -17.822 -10.1547
rtoes -20.3362
lfemur 3.18127 -1.61322 -8.27753
ltibia 28.5466
lfoot -26.6875 7.92458
ltoes -58.4536
167
root -0.898525 18.2721 7.22735 -3.84923 -4.80676 -5.45601
lowerback -0.955497 -0.179658 1.46924
upperback -7.71266 -0.167863 0.567303
thorax -7.51151 -0.161126 -0.217514
lowerneck -8.04758 -11.9585 -10.8937
upperneck 29.5609 -17.5757 6.40628
head 12.7302 -8.48649 1.68824
rclavicle -1.19271e-015 3.57812e-015
rhumerus -34.6945 10.1271 -96.1066
rradius 111.019
rwrist 26.4518
rhand 16.4597 -50.9866
rfingers 7.12502
rthumb 41.2239 -75.8314
lclavicle -1.19271e-015 3.57812e-015
lhumerus -29.8775 -13.1264 100.751
lradius 117.514
lwrist -25.8088
lhand 41.4225 2.00672
lfingers 7.12502
lthumb 63.5634 11.4075
rfemur 17.5971 3.6877 20.1666
rtibia -1.59028e-014
rfoot -17.851 -10.142
rtoes -20.3667
lfemur 3.22902 -1.53637 -8.32574
ltibia 28.5092
lfoot -26.6914 8.0585
ltoes -58.4726
168
root -0.899138 18.2721 7.23018 -3.8196 -5.00182 -5.42032
lowerback -0.938899 -0.217215 1.38136
upperback -7.70634 -0.22227 0.55341
thorax -7.51447 -0.183024 -0.17984
lowerneck -8.17878 -12.2316 -11.0225
upperneck 29.7204 -17.9527 6.33517
head 12.8716 -8.66787 1.59976
rclavicle -9.54166e-015 -1.39149e-014
rhumerus -34.7122 10.1647 -96.0686
rradius 110.974
rwrist 26.499
rhand 16.7937 -50.8864
rfingers 7.12502
rthumb 41.5373 -75.6296
lclavicle -9.54166e-015 -1.39149e-014
lhumerus -29.942 -13.1456 100.795
lradius 117.488
lwrist -25.8095
lhand 41.5449 1.93263
lfingers 7.12502
lthumb 63.6628 11.1895
rfemur 17.5574 3.8874 20.1413
rtibia -6.04305e-014
rfoot -17.915 -10.0742
rtoes -20.0844
lfemur 3.29909 -1.45084 -8.38043
ltibia 28.46
lfoot -26.6969 8.22564
ltoes -58.5578
169
root -0.901494 18.2729 7.23293 -3.74467 -5.20661 -5.42367
lowerback -0.932711 -0.246747 1.35142
upperback -7.72255 -0.264602 0.529851
thorax -7.53611 -0.203308 -0.185224
lowerneck -8.23885 -12.4319 -11.0682
upperneck 29.7684 -18.2217 6.24685
head 12.9286 -8.79947 1.5189
rclavicle -7.95139e-015 4.37326e-015
rhumerus -34.7666 10.1297 -96.0268
rradius 110.961
rwrist 26.5876
rhand 16.5115 -50.6561
rfingers 7.12502
rthumb 41.2725 -75.4853
lclavicle -7.95139e-015 4.37326e-015
lhumerus -30.0008 -13.2566 100.831
lradius 117.509
lwrist -25.7187
lhand 41.4867 2.01244
lfingers 7.12502
lthumb 63.6155 11.3379
rfemur 17.4714 4.09104 20.167
rtibia 5.56597e-014
rfoot -17.9375 -10.0497
rtoes -19.9746
lfemur 3.32266 -1.33328 -8.37271
ltibia 28.4024
lfoot -26.7248 8.30092
ltoes -58.5029
170
root -0.903513 18.2755 7.23637 -3.64558 -5.4383 -5.45283
lowerback -0.931854 -0.289006 1.38598
upperback -7.76971 -0.321987 0.502568
thorax -7.58918 -0.23575 -0.229482
lowerneck -8.23388 -12.5224 -11.1001
upperneck 29.776 -18.3591 6.24537
head 12.9494 -8.86533 1.49742
rclavicle 7.35503e-015 -1.07344e-014
rhumerus -34.8463 10.1185 -95.9737
rradius 110.953
rwrist 26.6226
rhand 15.8621 -50.3197
rfingers 7.12502
rthumb 40.6625 -75.3424
lclavicle 7.35503e-015 -1.07344e-014
lhumerus -30.0962 -13.3438 100.844
lradius 117.525
lwrist -25.668
lhand 41.2653 2.03165
lfingers 7.12502
lthumb 63.4354 11.6156
rfemur 17.3616 4.31814 20.2265
rtibia -5.24792e-014
rfoot -17.922 -10.0704
rtoes -20.3413
lfemur 3.34394 -1.17455 -8.33235
ltibia 28.3347
lfoot -26.7828 8.30966
ltoes -58.3896
171
root -0.906704 18.279 7.2411 -3.5557 -5.69804 -5.47176
lowerback -0.994904 -0.349916 1.39727
upperback -7.79691 -0.406607 0.476601
thorax -7.58368 -0.279789 -0.258389
lowerneck -8.21764 -12.5959 -11.0909
upperneck 29.7618 -18.4557 6.18019
head 12.9419 -8.91756 1.45552
rclavicle 4.17448e-015 2.38542e-015
rhumerus -34.8953 10.1979 -95.9724
rradius 110.924
rwrist 26.574
rhand 15.4158 -50.2248
rfingers 7.12502
rthumb 40.2429 -75.3771
lclavicle 4.17448e-015 2.38542e-015
lhumerus -30.1877 -13.3511 100.834
lradius 117.544
lwrist -25.6812
lhand 41.0343 1.95848
lfingers 7.12502
lthumb 63.2468 11.8082
rfemur 17.2575 4.57272 20.2835
rtibia 0
rfoot -17.9077 -10.0934
rtoes -20.5821
lfemur 3.38717 -1.02917 -8.31143
ltibia 28.2607
lfoot -26.8304 8.38887
ltoes -58.3894
172
root -0.911058 18.2817 7.24618 -3.47989 -5.97636 -5.46076
lowerback -1.09824 -0.419588 1.34878
upperback -7.79402 -0.505616 0.456388
thorax -7.52156 -0.326425 -0.247793
lowerneck -8.16306 -12.649 -11.1115
upperneck 29.6726 -18.5375 6.19864
head 12.9069 -8.95941 1.45555
rclavicle 9.93923e-016 -1.07344e-014
rhumerus -34.9192 10.3087 -96.002
rradius 110.91
rwrist 26.5695
rhand 15.3533 -50.3818
rfingers 7.12502
rthumb 40.1841 -75.552
lclavicle 9.93923e-016 -1.07344e-014
lhumerus -30.2654 -13.3372 100.834
lradius 117.664
lwrist -25.6146
lhand 41.0455 2.05104
lfingers 7.12502
lthumb 63.256 11.8879
rfemur 17.1615 4.84804 20.3112
rtibia -1.27222e-014
rfoot -17.9419 -10.0991
rtoes -20.2385
lfemur 3.43769 -0.88921 -8.32418
ltibia 28.1898
lfoot -26.858 8.50531
ltoes -58.4129
173
root -0.913665 18.2854 7.25076 -3.40232 -6.23872 -5.43165
lowerback -1.16691 -0.499301 1.29101
upperback -7.79966 -0.617508 0.436571
thorax -7.48887 -0.379004 -0.230758
lowerneck -8.07289 -12.7019 -11.1868
upperneck 29.518 -18.6285 6.29269
head 12.8541 -9.00463 1.49304
rclavicle -4.96962e-015 1.59028e-015
rhumerus -34.9164 10.4372 -95.9677
rradius 110.91
rwrist 26.6312
rhand 15.5888 -50.4093
rfingers 7.12502
rthumb 40.4056 -75.5117
lclavicle -4.96962e-015 1.59028e-015
lhumerus -30.354 -13.3122 100.888
lradius 117.809
lwrist -25.5936
lhand 41.0463 2.1163
lfingers 7.12502
lthumb 63.2567 11.9523
rfemur 17.0631 5.11078 20.3088
rtibia -1.90833e-014
rfoot -17.9942 -10.0929
rtoes -19.9318
lfemur 3.48301 -0.740025 -8.35836
ltibia 28.1234
lfoot -26.9368 8.53595
ltoes -58.2666
174
root -0.916225 18.2901 7.25485 -3.31139 -6.45861 -5.40292
lowerback -1.23154 -0.589831 1.22085
upperback -7.7979 -0.744643 0.407148
thorax -7.45054 -0.438629 -0.216278
lowerneck -8.06429 -12.8233 -11.195
upperneck 29.4142 -18.7808 6.22987
head 12.8193 -9.08384 1.44563
rclavicle -3.22031e-014 -1.98785e-015
rhumerus -34.8501 10.5479 -95.8991
rradius 110.911
rwrist 26.7386
rhand 15.7239 -50.2769
rfingers 7.12502
rthumb 40.5326 -75.3401
lclavicle -3.22031e-014 -1.98785e-015
lhumerus -30.374 -13.3183 100.945
lradius 117.858
lwrist -25.6642
lhand 40.856 2.04688
lfingers 7.12502
lthumb 63.1009 12.0991
rfemur 16.9506 5.33116 20.3026
rtibia 6.36111e-014
rfoot -18.0175 -10.094
rtoes -19.8898
lfemur 3.50427 -0.592619 -8.3933
ltibia 28.0583
lfoot -27.0084 8.58887
ltoes -58.1273
175
root -0.920275 18.2938 7.25794 -3.23077 -6.68281 -5.38477
lowerback -1.26416 -0.671317 1.13931
upperback -7.7777 -0.859903 0.370023
thorax -7.4104 -0.491853 -0.204105
lowerneck -8.11126 -13.0379 -11.2013
upperneck 29.376 -19.0479 6.08041
head 12.8245 -9.21987 1.33977
rclavicle 2.5842e-015 -7.95139e-016
rhumerus -34.7278 10.5951 -95.8398
rradius 110.891
rwrist 26.8352
rhand 15.5211 -50.0631
rfingers 7.12502
rthumb 40.342 -75.1851
lclavicle 2.5842e-015 -7.95139e-016
lhumerus -30.363 -13.4084 100.975
lradius 117.899
lwrist -25.6733
lhand 40.6845 1.98439
lfingers 7.12502
lthumb 62.9602 12.2291
rfemur 16.845 5.5539 20.3136
rtibia 2.70347e-014
rfoot -18.0311 -10.1004
rtoes -19.742
lfemur 3.52422 -0.455015 -8.41987
ltibia 27.9973
lfoot -27.0108 8.77609
ltoes -58.2224
